<?xml version="1.0" encoding="utf-8"?>
<!-- Generator: Adobe Illustrator 18.1.1, SVG Export Plug-In . SVG Version: 6.00 Build 0)  -->
<svg version="1.1" id="Layer_1" xmlns="http://www.w3.org/2000/svg" xmlns:xlink="http://www.w3.org/1999/xlink" x="0px" y="0px" width="35px"
	 viewBox="0 0 100 100" enable-background="new 0 0 100 100" xml:space="preserve">
<path id="Blue_2_" fill="#FFFFFF" d="M94,0.5H6c-3,0-5.5,2.4-5.5,5.5V94c0,3,2.4,5.5,5.5,5.5h47.4V61.2H40.5V46.2h12.9v-11
	c0-12.8,7.8-19.7,19.2-19.7c5.5,0,10.2,0.4,11.5,0.6v13.4l-7.9,0c-6.2,0-7.4,2.9-7.4,7.3v9.5h14.8l-1.9,14.9H68.8v38.3H94
	c3,0,5.5-2.4,5.5-5.5V6C99.5,2.9,97.1,0.5,94,0.5z"/>
</svg>
