<?xml version="1.0" encoding="utf-8"?>
<!-- Generator: Adobe Illustrator 18.1.1, SVG Export Plug-In . SVG Version: 6.00 Build 0)  -->
<svg version="1.1" id="Layer_1" xmlns="http://www.w3.org/2000/svg" xmlns:xlink="http://www.w3.org/1999/xlink" x="0px" y="0px" height="60px"
	 viewBox="0 0 100 100" enable-background="new 0 0 100 100" xml:space="preserve">
<linearGradient id="SVGID_1_" gradientUnits="userSpaceOnUse" x1="98.3099" y1="55.6183" x2="13.4397" y2="55.6183">
	<stop  offset="0" style="stop-color:#E43131"/>
	<stop  offset="0.2435" style="stop-color:#DB2F2D"/>
	<stop  offset="0.6029" style="stop-color:#C32825"/>
	<stop  offset="1" style="stop-color:#A2201A"/>
</linearGradient>
<path fill="url(#SVGID_1_)" d="M98.3,89.5V52.3L58.8,12.7L13.4,58.1l40.4,40.4h35.4C94.2,98.5,98.3,94.4,98.3,89.5z"/>
<g>
	<circle fill="#E32F30" cx="34.4" cy="33.9" r="32.2"/>
	<g>
		<path fill="#FFFFFF" d="M63.9,25.1c0.6-0.6,0.4-1.1-0.4-1.3l-18.4-2.7c-0.8-0.1-1.8-0.8-2.1-1.6L34.8,3c-0.4-0.7-1-0.7-1.3,0
			l-8.2,16.6c-0.4,0.7-1.3,1.4-2.1,1.6L4.7,23.9c-0.8,0.1-1,0.7-0.4,1.3l13.3,13c0.6,0.6,1,1.7,0.8,2.5l-3.1,18.3
			c-0.1,0.8,0.3,1.2,1.1,0.8L32.8,51c0.7-0.4,1.9-0.4,2.7,0l16.4,8.6c0.7,0.4,1.2,0,1.1-0.8l-3.1-18.3c-0.1-0.8,0.2-1.9,0.8-2.5
			L63.9,25.1z M35.6,42.8c-0.7-0.4-1.9-0.4-2.7,0l-6.8,3.6c-0.7,0.4-1.2,0-1.1-0.8l1.3-7.6c0.1-0.8-0.2-1.9-0.8-2.5L20,30.1
			c-0.6-0.6-0.4-1.1,0.4-1.3l7.6-1.1c0.8-0.1,1.8-0.8,2.1-1.6l3.4-6.9c0.4-0.7,1-0.7,1.3,0l3.4,6.9c0.4,0.7,1.3,1.4,2.1,1.6l7.6,1.1
			c0.8,0.1,1,0.7,0.4,1.3L43,35.5c-0.6,0.6-1,1.7-0.8,2.5l1.3,7.6c0.1,0.8-0.3,1.2-1.1,0.8L35.6,42.8z"/>
	</g>
	<circle fill="none" stroke="#FFFFFF" stroke-width="1.9024" stroke-miterlimit="10" cx="34.1" cy="33.9" r="32.4"/>
</g>
</svg>
